<svg width="48" height="48" viewBox="0 0 48 48" fill="none" xmlns="http://www.w3.org/2000/svg" role="img" aria-label="Casual Drive">
  <title>Casual Drive</title>
  <defs>
    <linearGradient id="cd-tile" x1="6" y1="4" x2="42" y2="44" gradientUnits="userSpaceOnUse">
      <stop stop-color="#1aa3c4"></stop>
      <stop offset="1" stop-color="#0a5266"></stop>
    </linearGradient>
  </defs>

  <rect x="3" y="3" width="42" height="42" rx="12" fill="url(#cd-tile)"></rect>

  <path d="M3 15C3 8.373 8.373 3 15 3H33C39.627 3 45 8.373 45 15V18H3V15Z" fill="#ffffff" fill-opacity="0.12"></path>

  <path d="M11 17.5C11 16.119 12.119 15 13.5 15H20L22.6 17.4C22.97 17.74 23.46 17.93 23.97 17.93H34.5C35.881 17.93 37 19.049 37 20.43V31.5C37 32.881 35.881 34 34.5 34H13.5C12.119 34 11 32.881 11 31.5V17.5Z" fill="#ffffff" fill-opacity="0.55"></path>

  <rect x="26" y="22.5" width="9" height="9" rx="2.5" fill="#ffffff"></rect>
</svg>